<svg width="190" height="190" xmlns="http://www.w3.org/2000/svg" xmlns:xlink="http://www.w3.org/1999/xlink" overflow="hidden"><defs><clipPath id="clip0"><rect x="0" y="0" width="190" height="190"/></clipPath></defs><g clip-path="url(#clip0)"><path d="M12 95.5001C12 49.3843 49.3843 12 95.5001 12 141.616 12 179 49.3843 179 95.5001 179 141.616 141.616 179 95.5001 179 49.3843 179 12 141.616 12 95.5001Z" fill="#DEEBF7" fill-rule="evenodd"/><path d="M0 95C-1.20948e-14 42.533 42.533-1.20948e-14 95-2.41895e-14 147.467-4.83791e-14 190 42.533 190 95 190 147.467 147.467 190 95 190 42.533 190-6.04739e-14 147.467 0 95ZM16.3096 95C16.3096 138.46 51.5405 173.691 95 173.691 138.46 173.691 173.691 138.46 173.691 95 173.691 51.5405 138.46 16.3096 95 16.3096 51.5405 16.3096 16.3096 51.5405 16.3096 95Z" fill="#4472C4" fill-rule="evenodd"/><path d="M62.9999 69.0001C62.9999 50.7747 77.5506 36.0001 95.4999 36.0001 113.449 36.0001 128 50.7747 128 69.0001 128 87.2255 113.449 102 95.4999 102 77.5506 102 62.9999 87.2255 62.9999 69.0001Z" fill="#4472C4" fill-rule="evenodd"/><path d="M44 175 44 142.5C44 124.551 66.8335 110 95 110 123.167 110 146 124.551 146 142.5L146 175Z" fill="#4472C4" fill-rule="evenodd"/></g></svg>